# xmcd
#
# Track frame offsets:
#	150
#	13783
#	26153
#	40512
#	53546
#	67155
#	84455
#	95309
#	107326
#	119044
#	130393
#	143165
#	159108
#	173409
#	187157
#	198103
#	209722
#	220785
#	234590
#	244511
#	254668
#	267940
#	279084
#	288520
#
# Disc length: 4092 seconds
#
# Revision: 4
# Processed by: cddbd v1.4PL0 Copyright (c) Steve Scherf et al.
# Submitted via: MusicManager 7.0.0.0 
#
DISCID=570ffa18
DTITLE=Various Artist - Country USA - 1970
DYEAR=1988
DGENRE=
TTITLE0=Various Artist - Coal Miner's Daughter
TTITLE1=Various Artist - There Must Be More To Love Than This
TTITLE2=Various Artist - 15 Years Ago
TTITLE3=Various Artist - The Fightin' Side Of Me
TTITLE4=Various Artist - If I Were A Carpenter
TTITLE5=Various Artist - For The Good Times
TTITLE6=Various Artist - The Taker
TTITLE7=Various Artist - He Loves Me All The Way
TTITLE8=Various Artist - Wonder Could I Live There Anymore
TTITLE9=Various Artist - How I Got To Memphis
TTITLE10=Various Artist - Rose Garden
TTITLE11=Various Artist - My Woman, My Woman, My Wife
TTITLE12=Various Artist - Mule Skinner Blues
TTITLE13=Various Artist - A Good Year For Roses
TTITLE14=Various Artist - Once More With Feeling
TTITLE15=Various Artist - I Know How
TTITLE16=Various Artist - Hello Darlin'
TTITLE17=Various Artist - A Week In The Country Jail
TTITLE18=Various Artist - Snowbird
TTITLE19=Various Artist - Is Anybody Goin' To San Antone
TTITLE20=Various Artist - Endlessly
TTITLE21=Various Artist - Run,Woman, Run
TTITLE22=Various Artist - Brown-Eyed Handsome Man
TTITLE23=Various Artist - Sunday Morning Coming Down
EXTD=
EXTT0=
EXTT1=
EXTT2=
EXTT3=
EXTT4=
EXTT5=
EXTT6=
EXTT7=
EXTT8=
EXTT9=
EXTT10=
EXTT11=
EXTT12=
EXTT13=
EXTT14=
EXTT15=
EXTT16=
EXTT17=
EXTT18=
EXTT19=
EXTT20=
EXTT21=
EXTT22=
EXTT23=
PLAYORDER=
